M48
; DRILL file {KiCad (6.0.4)} date Sat May 28 14:43:12 2022
; FORMAT={-:-/ absolute / inch / decimal}
; #@! TF.CreationDate,2022-05-28T14:43:12-04:00
; #@! TF.GenerationSoftware,Kicad,Pcbnew,(6.0.4)
; #@! TF.FileFunction,Plated,1,2,PTH
FMAT,2
INCH
; #@! TA.AperFunction,Plated,PTH,ViaDrill
T1C0.0120
; #@! TA.AperFunction,Plated,PTH,ViaDrill
T2C0.0157
; #@! TA.AperFunction,Plated,PTH,ViaDrill
T3C0.0160
; #@! TA.AperFunction,Plated,PTH,ViaDrill
T4C0.0200
; #@! TA.AperFunction,Plated,PTH,ComponentDrill
T5C0.0236
; #@! TA.AperFunction,Plated,PTH,ComponentDrill
T6C0.0400
; #@! TA.AperFunction,Plated,PTH,ComponentDrill
T7C0.0579
%
G90
G05
T1
X0.7244Y-2.0394
X2.3937Y-2.1575
X5.5866Y-0.0354
X5.6223Y-0.1466
X5.6343Y-0.0335
X5.6606Y-0.2803
X5.9823Y-3.5965
X6.0728Y-3.5591
X6.4547Y-3.565
X6.4626Y-3.6575
X6.5Y-3.6464
X6.5315Y-3.6286
X6.5472Y-3.1752
X6.6628Y-3.1825
X6.706Y-3.3992
X6.7066Y-3.188
X6.7106Y-3.1303
X6.7165Y-3.2539
X6.7339Y-3.2129
X6.7933Y-3.3622
X6.9749Y-2.9252
X6.9927Y-2.8201
X7.0246Y-2.6947
X7.0429Y-2.8409
X7.0781Y-2.9232
X7.1713Y-3.6107
X7.1988Y-3.5928
X7.2087Y-2.7717
X7.5382Y-3.3819
X7.5394Y-3.0906
X7.5591Y-3.2283
X7.6772Y-3.3819
X7.7283Y-3.2205
T2
X6.1193Y-3.4858
T3
X0.4744Y-3.0453
X1.3425Y-3.0906
X2.4582Y-3.0917
X3.7638Y-3.0661
X4.1654Y-2.9567
X5.1418Y-2.9566
X5.3386Y-1.315
X5.4016Y-0.6988
X5.4213Y-1.3189
X5.4547Y-1.0413
X5.4937Y-0.1669
X5.5177Y-0.2303
X5.5197Y-2.063
X5.5787Y-0.6575
X5.6634Y-0.6555
X5.6791Y-1.3209
X5.7618Y-0.1732
X5.8346Y-2.061
X5.878Y-2.8189
X6.0276Y-2.8248
X6.0807Y-2.061
X6.1437Y-0.565
X6.315Y-3.4921
X6.3302Y-3.2239
X6.4438Y-1.315
X6.4941Y-2.8091
X6.5748Y-3.565
X6.6102Y-2.065
X6.7835Y-3.6043
X6.7938Y-3.2289
X6.8583Y-2.9783
X6.957Y-3.1302
X6.9843Y-3.3583
X7.1417Y-3.5354
T4
X7.1142Y-2.815
T6
X8.0447Y-3.1795
X8.0447Y-3.2795
X8.0447Y-3.3795
X8.1447Y-3.1795
X8.1447Y-3.2795
X8.1447Y-3.3795
T7
X0.225Y-0.275
X0.3175Y-1.775
X0.411Y-1.025
X0.411Y-3.275
X0.475Y-0.175
X0.5045Y-1.775
X0.5675Y-1.675
X0.661Y-0.925
X0.661Y-3.175
X0.6915Y-2.525
X0.7545Y-1.675
X0.9415Y-2.425
X0.972Y-0.275
X1.222Y-0.175
X1.3461Y-1.025
X1.3461Y-3.275
X1.5331Y-1.775
X1.5961Y-0.925
X1.5961Y-3.175
X1.7201Y-0.275
X1.7831Y-1.675
X1.9071Y-2.525
X1.9701Y-0.175
X2.0941Y-1.025
X2.1571Y-2.425
X2.2811Y-1.775
X2.2811Y-3.275
X2.3441Y-0.925
X2.4681Y-0.275
X2.5311Y-1.675
X2.5311Y-3.175
X2.6551Y-2.525
X2.7181Y-0.175
X2.8421Y-1.025
X2.9051Y-2.425
X3.0291Y-1.775
X3.0921Y-0.925
X3.2161Y-0.275
X3.2791Y-1.675
X3.4031Y-2.525
X3.4661Y-0.175
X3.5902Y-1.025
X3.6531Y-2.425
X3.7772Y-1.775
X3.8402Y-0.925
X3.9642Y-0.275
X3.9642Y-3.275
X4.0272Y-1.675
X4.1512Y-2.525
X4.2142Y-0.175
X4.2142Y-3.175
X4.3382Y-1.025
X4.4012Y-2.425
X4.5252Y-1.775
X4.5882Y-0.925
X4.7122Y-0.275
X4.7752Y-1.675
X4.8992Y-2.525
X4.9622Y-0.175
X5.0862Y-1.025
X5.1492Y-2.425
X5.2732Y-1.775
X5.3362Y-0.925
X5.4602Y-3.275
X5.5102Y-0.575
X5.5232Y-1.675
X5.6472Y-2.525
X5.7102Y-3.175
X5.7602Y-0.475
X5.8343Y-1.025
X5.8972Y-2.425
X6.0213Y-1.775
X6.0843Y-0.925
X6.2083Y-0.275
X6.2713Y-1.675
X6.3953Y-2.525
X6.4583Y-0.175
X6.5823Y-1.025
X6.6453Y-2.425
X6.7693Y-1.775
X6.8323Y-0.925
X6.9563Y-0.275
X6.9563Y-3.275
X7.0193Y-1.675
X7.1433Y-2.525
X7.2063Y-0.175
X7.2063Y-3.175
X7.3303Y-1.025
X7.3933Y-2.425
X7.5173Y-1.775
X7.5803Y-0.925
X7.7043Y-0.275
X7.7673Y-1.675
X7.8913Y-2.525
X7.9543Y-0.175
X8.0783Y-1.025
X8.1413Y-2.425
X8.2654Y-1.775
X8.3283Y-0.925
X8.4524Y-0.275
X8.5154Y-1.675
X8.6394Y-2.525
X8.6394Y-3.275
X8.7024Y-0.175
X8.8264Y-1.025
X8.8894Y-2.425
X8.8894Y-3.175
X9.0134Y-1.775
X9.0764Y-0.925
X9.2004Y-0.275
X9.2634Y-1.675
X9.4504Y-0.175
X9.5744Y-1.025
X9.5744Y-3.275
X9.6679Y-2.525
X9.8244Y-0.925
X9.8244Y-3.175
X9.9179Y-2.425
X9.9484Y-0.275
X10.0419Y-2.525
X10.1984Y-0.175
X10.2289Y-1.775
X10.2919Y-2.425
X10.3224Y-0.275
X10.4789Y-1.675
X10.5094Y-1.025
X10.5094Y-3.275
X10.5724Y-0.175
X10.6965Y-0.275
X10.6965Y-2.525
X10.7594Y-0.925
X10.7594Y-3.175
X10.9465Y-0.175
X10.9465Y-2.425
T5
G00X5.4547Y0.1236
M15
G01X5.4547Y0.1
M16
G05
G00X5.4547Y-0.0311
M15
G01X5.4547Y-0.0744
M16
G05
G00X5.7949Y0.1236
M15
G01X5.7949Y0.1
M16
G05
G00X5.7949Y-0.0311
M15
G01X5.7949Y-0.0744
M16
G05
T0
M30
