%TF.GenerationSoftware,KiCad,Pcbnew,(6.0.4)*%
%TF.CreationDate,2022-05-28T14:43:12-04:00*%
%TF.ProjectId,keyboard,6b657962-6f61-4726-942e-6b696361645f,rev?*%
%TF.SameCoordinates,Original*%
%TF.FileFunction,Profile,NP*%
%FSLAX46Y46*%
G04 Gerber Fmt 4.6, Leading zero omitted, Abs format (unit mm)*
G04 Created by KiCad (PCBNEW (6.0.4)) date 2022-05-28 14:43:12*
%MOMM*%
%LPD*%
G01*
G04 APERTURE LIST*
%TA.AperFunction,Profile*%
%ADD10C,0.150000*%
%TD*%
%TA.AperFunction,Profile*%
%ADD11C,0.200000*%
%TD*%
%TA.AperFunction,Profile*%
%ADD12C,0.120000*%
%TD*%
G04 APERTURE END LIST*
D10*
X13877500Y-93932500D02*
G75*
G03*
X12690000Y-95120000I0J-1187500D01*
G01*
X5864500Y-93932500D02*
X2746000Y-93932500D01*
X1558500Y-92745000D02*
G75*
G03*
X2746000Y-93932500I1187500J0D01*
G01*
X5864500Y-1307500D02*
G75*
G03*
X7052000Y-120000I0J1187500D01*
G01*
X7052000Y-95120000D02*
G75*
G03*
X5864500Y-93932500I-1187500J0D01*
G01*
X203877500Y-93932500D02*
X271862500Y-93932500D01*
X81864500Y-1307500D02*
X13877500Y-1307500D01*
X7052000Y1661250D02*
X7052000Y-120000D01*
X273052000Y1661250D02*
X273050000Y-120000D01*
X278690000Y-96901250D02*
X278690000Y-95120000D01*
X88690000Y-96901250D02*
X88690000Y-95120000D01*
X202690000Y-120000D02*
G75*
G03*
X203877500Y-1307500I1187500J0D01*
G01*
X2746000Y-1307500D02*
G75*
G03*
X1558500Y-2495000I0J-1187500D01*
G01*
X282996000Y-93932500D02*
G75*
G03*
X284183500Y-92745000I0J1187500D01*
G01*
X83052000Y1661250D02*
X83052000Y-120000D01*
X273052000Y-96901250D02*
X273050000Y-95120000D01*
X7052000Y-96901250D02*
X7052000Y-95120000D01*
X12690000Y-96901250D02*
X12690000Y-95120000D01*
X88690000Y1661250D02*
X88690000Y-120000D01*
X197052000Y-96901250D02*
X197052000Y-95120000D01*
X13877500Y-93932500D02*
X81864500Y-93932500D01*
X195864500Y-1307500D02*
X149996000Y-1307500D01*
X89877500Y-93932500D02*
G75*
G03*
X88690000Y-95120000I0J-1187500D01*
G01*
X197052000Y1661250D02*
X197052000Y-120000D01*
X273050000Y-95120000D02*
G75*
G03*
X271862500Y-93932500I-1187500J0D01*
G01*
X202690000Y-96901250D02*
X202690000Y-95120000D01*
X203877500Y-93932500D02*
G75*
G03*
X202690000Y-95120000I0J-1187500D01*
G01*
X195864500Y-93932500D02*
X89877500Y-93932500D01*
X135746000Y-1307500D02*
X89877500Y-1307500D01*
X197052000Y-95120000D02*
G75*
G03*
X195864500Y-93932500I-1187500J0D01*
G01*
X202690000Y1661250D02*
X202690000Y-120000D01*
X279877500Y-93932500D02*
G75*
G03*
X278690000Y-95120000I0J-1187500D01*
G01*
X81864500Y-1307500D02*
G75*
G03*
X83052000Y-120000I0J1187500D01*
G01*
X88690000Y-120000D02*
G75*
G03*
X89877500Y-1307500I1187500J0D01*
G01*
X284183500Y-2495000D02*
G75*
G03*
X282996000Y-1307500I-1187500J0D01*
G01*
X1558500Y-2495000D02*
X1558500Y-92745000D01*
X279877500Y-93932500D02*
X282996000Y-93932500D01*
X5864500Y-1307500D02*
X2746000Y-1307500D01*
X149996000Y-1307500D02*
X149322756Y-1310000D01*
X271862500Y-1307500D02*
G75*
G03*
X273050000Y-120000I0J1187500D01*
G01*
X278690000Y-120000D02*
G75*
G03*
X279877500Y-1307500I1187500J0D01*
G01*
X203877500Y-1307500D02*
X271862500Y-1307500D01*
X279877500Y-1307500D02*
X282996000Y-1307500D01*
X83052000Y-96901250D02*
X83052000Y-95120000D01*
X195864500Y-1307500D02*
G75*
G03*
X197052000Y-120000I0J1187500D01*
G01*
X284183500Y-2495000D02*
X284183500Y-92745000D01*
X135746000Y-1307500D02*
X136250000Y-1307500D01*
X12690000Y-120000D02*
G75*
G03*
X13877500Y-1307500I1187500J0D01*
G01*
X12690000Y1661250D02*
X12690000Y-120000D01*
X83052000Y-95120000D02*
G75*
G03*
X81864500Y-93932500I-1187500J0D01*
G01*
X148100000Y3750000D02*
X137650000Y3750000D01*
X278690000Y1661250D02*
G75*
G03*
X273052000Y1661250I-2819000J0D01*
G01*
X202690000Y1661250D02*
G75*
G03*
X197052000Y1661250I-2819000J0D01*
G01*
X88690000Y1661250D02*
G75*
G03*
X83052000Y1661250I-2819000J0D01*
G01*
X12690000Y1661250D02*
G75*
G03*
X7052000Y1661250I-2819000J0D01*
G01*
X7052000Y-96901250D02*
G75*
G03*
X12690000Y-96901250I2819000J0D01*
G01*
X83052000Y-96901250D02*
G75*
G03*
X88690000Y-96901250I2819000J0D01*
G01*
X197052000Y-96901250D02*
G75*
G03*
X202690000Y-96901250I2819000J0D01*
G01*
X278690000Y1661250D02*
X278690000Y-120000D01*
X273052000Y-96901250D02*
G75*
G03*
X278690000Y-96901250I2819000J0D01*
G01*
D11*
X40000000Y-60000000D02*
G75*
G03*
X38000000Y-60000000I-1000000J0D01*
G01*
X261000000Y-35000000D02*
X261000000Y-21000000D01*
X259000000Y-21000000D02*
X259000000Y-35000000D01*
D10*
X137160000Y-500000D02*
X137160000Y3250000D01*
D11*
X247000000Y-40000000D02*
G75*
G03*
X245000000Y-40000000I-1000000J0D01*
G01*
X30000000Y-54000000D02*
X30000000Y-40000000D01*
X27000000Y-35000000D02*
X27000000Y-21000000D01*
X282000000Y-40000000D02*
G75*
G03*
X280000000Y-40000000I-1000000J0D01*
G01*
X30000000Y-40000000D02*
G75*
G03*
X28000000Y-40000000I-1000000J0D01*
G01*
X239000000Y-74000000D02*
X239000000Y-60000000D01*
X4000000Y-60000000D02*
X4000000Y-74000000D01*
X4000000Y-74000000D02*
G75*
G03*
X6000000Y-74000000I1000000J0D01*
G01*
X40000000Y-74000000D02*
X40000000Y-60000000D01*
X28000000Y-40000000D02*
X28000000Y-54000000D01*
D10*
X136250000Y-1307498D02*
G75*
G03*
X137160000Y-500000I74900J832098D01*
G01*
D11*
X25000000Y-21000000D02*
X25000000Y-35000000D01*
D10*
X148589995Y-500000D02*
G75*
G03*
X149322756Y-1310000I788205J-23400D01*
G01*
D11*
X38000000Y-74000000D02*
G75*
G03*
X40000000Y-74000000I1000000J0D01*
G01*
X282000000Y-54000000D02*
X282000000Y-40000000D01*
D10*
X148590000Y-500000D02*
X148590000Y3260000D01*
D11*
X280000000Y-54000000D02*
G75*
G03*
X282000000Y-54000000I1000000J0D01*
G01*
X6000000Y-74000000D02*
X6000000Y-60000000D01*
X280000000Y-40000000D02*
X280000000Y-54000000D01*
X239000000Y-60000000D02*
G75*
G03*
X237000000Y-60000000I-1000000J0D01*
G01*
X247000000Y-54000000D02*
X247000000Y-40000000D01*
X237000000Y-74000000D02*
G75*
G03*
X239000000Y-74000000I1000000J0D01*
G01*
X38000000Y-60000000D02*
X38000000Y-74000000D01*
X27000000Y-21000000D02*
G75*
G03*
X25000000Y-21000000I-1000000J0D01*
G01*
X6000000Y-60000000D02*
G75*
G03*
X4000000Y-60000000I-1000000J0D01*
G01*
X259000000Y-35000000D02*
G75*
G03*
X261000000Y-35000000I1000000J0D01*
G01*
X28000000Y-54000000D02*
G75*
G03*
X30000000Y-54000000I1000000J0D01*
G01*
X261000000Y-21000000D02*
G75*
G03*
X259000000Y-21000000I-1000000J0D01*
G01*
X245000000Y-40000000D02*
X245000000Y-54000000D01*
X25000000Y-35000000D02*
G75*
G03*
X27000000Y-35000000I1000000J0D01*
G01*
D10*
X148590000Y3260000D02*
G75*
G03*
X148100000Y3750000I-468200J21800D01*
G01*
X137650000Y3749998D02*
G75*
G03*
X137160000Y3250000I10100J-499998D01*
G01*
D11*
X245000000Y-54000000D02*
G75*
G03*
X247000000Y-54000000I1000000J0D01*
G01*
X237000000Y-60000000D02*
X237000000Y-74000000D01*
D12*
X1666666Y0D02*
G75*
G03*
X1666666Y0I-1666666J0D01*
G01*
X-2500000Y0D02*
X2500000Y0D01*
X0Y2500000D02*
X0Y-2500000D01*
%TO.C,D65*%
X16075000Y-51125000D02*
X12675000Y-51125000D01*
X12675000Y-54125000D02*
X16075000Y-54125000D01*
X16075000Y-54125000D02*
X16075000Y-51125000D01*
X12675000Y-51125000D02*
X12675000Y-54125000D01*
%TD*%
M02*
