%TF.GenerationSoftware,KiCad,Pcbnew,(6.0.4)*%
%TF.CreationDate,2022-05-28T14:43:12-04:00*%
%TF.ProjectId,keyboard,6b657962-6f61-4726-942e-6b696361645f,rev?*%
%TF.SameCoordinates,Original*%
%TF.FileFunction,Soldermask,Top*%
%TF.FilePolarity,Negative*%
%FSLAX46Y46*%
G04 Gerber Fmt 4.6, Leading zero omitted, Abs format (unit mm)*
G04 Created by KiCad (PCBNEW (6.0.4)) date 2022-05-28 14:43:12*
%MOMM*%
%LPD*%
G01*
G04 APERTURE LIST*
G04 Aperture macros list*
%AMFreePoly0*
4,1,22,0.500000,-0.750000,0.000000,-0.750000,0.000000,-0.745033,-0.079941,-0.743568,-0.215256,-0.701293,-0.333266,-0.622738,-0.424486,-0.514219,-0.481581,-0.384460,-0.499164,-0.250000,-0.500000,-0.250000,-0.500000,0.250000,-0.499164,0.250000,-0.499963,0.256109,-0.478152,0.396186,-0.417904,0.524511,-0.324060,0.630769,-0.204165,0.706417,-0.067858,0.745374,0.000000,0.744959,0.000000,0.750000,
0.500000,0.750000,0.500000,-0.750000,0.500000,-0.750000,$1*%
%AMFreePoly1*
4,1,20,0.000000,0.744959,0.073905,0.744508,0.209726,0.703889,0.328688,0.626782,0.421226,0.519385,0.479903,0.390333,0.500000,0.250000,0.500000,-0.250000,0.499851,-0.262216,0.476331,-0.402017,0.414519,-0.529596,0.319384,-0.634700,0.198574,-0.708877,0.061801,-0.746166,0.000000,-0.745033,0.000000,-0.750000,-0.500000,-0.750000,-0.500000,0.750000,0.000000,0.750000,0.000000,0.744959,
0.000000,0.744959,$1*%
G04 Aperture macros list end*
%ADD10C,0.250000*%
%ADD11C,0.010000*%
%ADD12FreePoly0,0.000000*%
%ADD13FreePoly1,0.000000*%
%ADD14C,3.200000*%
%ADD15C,1.750000*%
%ADD16C,3.987800*%
%ADD17C,3.048000*%
%ADD18R,1.700000X1.700000*%
%ADD19C,1.700000*%
%ADD20O,1.000000X2.100000*%
%ADD21O,1.000000X1.600000*%
%ADD22C,0.650000*%
G04 APERTURE END LIST*
D10*
X133842857Y-92552380D02*
X133842857Y-91552380D01*
X134319047Y-92552380D02*
X134319047Y-91552380D01*
X134557142Y-91552380D01*
X134700000Y-91600000D01*
X134795238Y-91695238D01*
X134842857Y-91790476D01*
X134890476Y-91980952D01*
X134890476Y-92123809D01*
X134842857Y-92314285D01*
X134795238Y-92409523D01*
X134700000Y-92504761D01*
X134557142Y-92552380D01*
X134319047Y-92552380D01*
X135652380Y-92028571D02*
X135795238Y-92076190D01*
X135842857Y-92123809D01*
X135890476Y-92219047D01*
X135890476Y-92361904D01*
X135842857Y-92457142D01*
X135795238Y-92504761D01*
X135700000Y-92552380D01*
X135319047Y-92552380D01*
X135319047Y-91552380D01*
X135652380Y-91552380D01*
X135747619Y-91600000D01*
X135795238Y-91647619D01*
X135842857Y-91742857D01*
X135842857Y-91838095D01*
X135795238Y-91933333D01*
X135747619Y-91980952D01*
X135652380Y-92028571D01*
X135319047Y-92028571D01*
X136747619Y-91552380D02*
X136557142Y-91552380D01*
X136461904Y-91600000D01*
X136414285Y-91647619D01*
X136319047Y-91790476D01*
X136271428Y-91980952D01*
X136271428Y-92361904D01*
X136319047Y-92457142D01*
X136366666Y-92504761D01*
X136461904Y-92552380D01*
X136652380Y-92552380D01*
X136747619Y-92504761D01*
X136795238Y-92457142D01*
X136842857Y-92361904D01*
X136842857Y-92123809D01*
X136795238Y-92028571D01*
X136747619Y-91980952D01*
X136652380Y-91933333D01*
X136461904Y-91933333D01*
X136366666Y-91980952D01*
X136319047Y-92028571D01*
X136271428Y-92123809D01*
X137461904Y-91552380D02*
X137557142Y-91552380D01*
X137652380Y-91600000D01*
X137700000Y-91647619D01*
X137747619Y-91742857D01*
X137795238Y-91933333D01*
X137795238Y-92171428D01*
X137747619Y-92361904D01*
X137700000Y-92457142D01*
X137652380Y-92504761D01*
X137557142Y-92552380D01*
X137461904Y-92552380D01*
X137366666Y-92504761D01*
X137319047Y-92457142D01*
X137271428Y-92361904D01*
X137223809Y-92171428D01*
X137223809Y-91933333D01*
X137271428Y-91742857D01*
X137319047Y-91647619D01*
X137366666Y-91600000D01*
X137461904Y-91552380D01*
X139557142Y-92552380D02*
X139223809Y-92076190D01*
X138985714Y-92552380D02*
X138985714Y-91552380D01*
X139366666Y-91552380D01*
X139461904Y-91600000D01*
X139509523Y-91647619D01*
X139557142Y-91742857D01*
X139557142Y-91885714D01*
X139509523Y-91980952D01*
X139461904Y-92028571D01*
X139366666Y-92076190D01*
X138985714Y-92076190D01*
X140366666Y-92504761D02*
X140271428Y-92552380D01*
X140080952Y-92552380D01*
X139985714Y-92504761D01*
X139938095Y-92409523D01*
X139938095Y-92028571D01*
X139985714Y-91933333D01*
X140080952Y-91885714D01*
X140271428Y-91885714D01*
X140366666Y-91933333D01*
X140414285Y-92028571D01*
X140414285Y-92123809D01*
X139938095Y-92219047D01*
X140842857Y-91885714D02*
X140842857Y-92885714D01*
X140842857Y-91933333D02*
X140938095Y-91885714D01*
X141128571Y-91885714D01*
X141223809Y-91933333D01*
X141271428Y-91980952D01*
X141319047Y-92076190D01*
X141319047Y-92361904D01*
X141271428Y-92457142D01*
X141223809Y-92504761D01*
X141128571Y-92552380D01*
X140938095Y-92552380D01*
X140842857Y-92504761D01*
X141890476Y-92552380D02*
X141795238Y-92504761D01*
X141747619Y-92409523D01*
X141747619Y-91552380D01*
X142700000Y-92552380D02*
X142700000Y-92028571D01*
X142652380Y-91933333D01*
X142557142Y-91885714D01*
X142366666Y-91885714D01*
X142271428Y-91933333D01*
X142700000Y-92504761D02*
X142604761Y-92552380D01*
X142366666Y-92552380D01*
X142271428Y-92504761D01*
X142223809Y-92409523D01*
X142223809Y-92314285D01*
X142271428Y-92219047D01*
X142366666Y-92171428D01*
X142604761Y-92171428D01*
X142700000Y-92123809D01*
X143604761Y-92504761D02*
X143509523Y-92552380D01*
X143319047Y-92552380D01*
X143223809Y-92504761D01*
X143176190Y-92457142D01*
X143128571Y-92361904D01*
X143128571Y-92076190D01*
X143176190Y-91980952D01*
X143223809Y-91933333D01*
X143319047Y-91885714D01*
X143509523Y-91885714D01*
X143604761Y-91933333D01*
X144414285Y-92504761D02*
X144319047Y-92552380D01*
X144128571Y-92552380D01*
X144033333Y-92504761D01*
X143985714Y-92409523D01*
X143985714Y-92028571D01*
X144033333Y-91933333D01*
X144128571Y-91885714D01*
X144319047Y-91885714D01*
X144414285Y-91933333D01*
X144461904Y-92028571D01*
X144461904Y-92123809D01*
X143985714Y-92219047D01*
X144890476Y-92552380D02*
X144890476Y-91885714D01*
X144890476Y-91980952D02*
X144938095Y-91933333D01*
X145033333Y-91885714D01*
X145176190Y-91885714D01*
X145271428Y-91933333D01*
X145319047Y-92028571D01*
X145319047Y-92552380D01*
X145319047Y-92028571D02*
X145366666Y-91933333D01*
X145461904Y-91885714D01*
X145604761Y-91885714D01*
X145700000Y-91933333D01*
X145747619Y-92028571D01*
X145747619Y-92552380D01*
X146604761Y-92504761D02*
X146509523Y-92552380D01*
X146319047Y-92552380D01*
X146223809Y-92504761D01*
X146176190Y-92409523D01*
X146176190Y-92028571D01*
X146223809Y-91933333D01*
X146319047Y-91885714D01*
X146509523Y-91885714D01*
X146604761Y-91933333D01*
X146652380Y-92028571D01*
X146652380Y-92123809D01*
X146176190Y-92219047D01*
X147080952Y-91885714D02*
X147080952Y-92552380D01*
X147080952Y-91980952D02*
X147128571Y-91933333D01*
X147223809Y-91885714D01*
X147366666Y-91885714D01*
X147461904Y-91933333D01*
X147509523Y-92028571D01*
X147509523Y-92552380D01*
X147842857Y-91885714D02*
X148223809Y-91885714D01*
X147985714Y-91552380D02*
X147985714Y-92409523D01*
X148033333Y-92504761D01*
X148128571Y-92552380D01*
X148223809Y-92552380D01*
X149223809Y-91885714D02*
X149461904Y-92552380D01*
X149700000Y-91885714D01*
X150604761Y-92552380D02*
X150033333Y-92552380D01*
X150319047Y-92552380D02*
X150319047Y-91552380D01*
X150223809Y-91695238D01*
X150128571Y-91790476D01*
X150033333Y-91838095D01*
%TO.C,H3*%
G36*
X125766940Y-83945421D02*
G01*
X125802995Y-83947257D01*
X125834912Y-83950028D01*
X125860474Y-83953510D01*
X125873620Y-83956308D01*
X125893816Y-83962399D01*
X125914606Y-83970009D01*
X125936269Y-83979383D01*
X125959084Y-83990766D01*
X125983329Y-84004405D01*
X126009284Y-84020543D01*
X126037229Y-84039426D01*
X126067441Y-84061299D01*
X126100200Y-84086408D01*
X126135785Y-84114998D01*
X126174476Y-84147314D01*
X126216550Y-84183601D01*
X126262288Y-84224104D01*
X126311968Y-84269069D01*
X126365870Y-84318741D01*
X126424272Y-84373365D01*
X126487454Y-84433186D01*
X126555694Y-84498450D01*
X126629272Y-84569401D01*
X126708467Y-84646286D01*
X126793557Y-84729348D01*
X126884822Y-84818834D01*
X126982542Y-84914989D01*
X127086994Y-85018057D01*
X127127973Y-85058557D01*
X127311413Y-85240622D01*
X127487853Y-85417163D01*
X127657179Y-85588065D01*
X127819279Y-85753213D01*
X127974042Y-85912492D01*
X128121354Y-86065785D01*
X128261104Y-86212978D01*
X128393179Y-86353954D01*
X128490058Y-86458722D01*
X128528566Y-86500659D01*
X128560825Y-86535972D01*
X128587474Y-86565504D01*
X128609151Y-86590102D01*
X128626494Y-86610609D01*
X128640142Y-86627870D01*
X128650735Y-86642730D01*
X128658909Y-86656033D01*
X128665305Y-86668623D01*
X128670560Y-86681347D01*
X128675313Y-86695047D01*
X128680020Y-86709980D01*
X128691456Y-86755569D01*
X128700198Y-86808266D01*
X128706173Y-86865658D01*
X128709311Y-86925330D01*
X128709540Y-86984870D01*
X128706788Y-87041865D01*
X128700983Y-87093900D01*
X128692661Y-87136210D01*
X128680329Y-87173244D01*
X128662394Y-87211949D01*
X128640890Y-87248477D01*
X128617851Y-87278980D01*
X128616247Y-87280775D01*
X128595694Y-87301429D01*
X128571869Y-87321240D01*
X128543843Y-87340724D01*
X128510686Y-87360394D01*
X128471469Y-87380764D01*
X128425263Y-87402347D01*
X128371140Y-87425659D01*
X128308169Y-87451212D01*
X128307974Y-87451289D01*
X128210009Y-87487248D01*
X128115206Y-87515860D01*
X128020676Y-87537771D01*
X127923530Y-87553627D01*
X127820880Y-87564076D01*
X127796400Y-87565769D01*
X127774600Y-87566806D01*
X127744005Y-87567752D01*
X127705979Y-87568587D01*
X127661884Y-87569293D01*
X127613087Y-87569853D01*
X127560950Y-87570249D01*
X127506838Y-87570461D01*
X127452115Y-87570473D01*
X127443340Y-87570455D01*
X127375126Y-87570457D01*
X127298374Y-87570752D01*
X127214697Y-87571319D01*
X127125713Y-87572135D01*
X127033036Y-87573177D01*
X126938282Y-87574424D01*
X126843068Y-87575854D01*
X126749007Y-87577443D01*
X126657718Y-87579170D01*
X126570814Y-87581012D01*
X126489912Y-87582948D01*
X126441757Y-87584234D01*
X126329175Y-87587381D01*
X126326815Y-88248500D01*
X126326394Y-88353741D01*
X126325911Y-88452021D01*
X126325369Y-88543036D01*
X126324770Y-88626482D01*
X126324118Y-88702055D01*
X126323417Y-88769453D01*
X126322670Y-88828370D01*
X126321880Y-88878503D01*
X126321050Y-88919548D01*
X126320184Y-88951201D01*
X126319286Y-88973158D01*
X126318799Y-88980740D01*
X126312039Y-89055160D01*
X126304194Y-89120364D01*
X126294993Y-89177263D01*
X126284163Y-89226769D01*
X126271433Y-89269794D01*
X126256530Y-89307248D01*
X126239181Y-89340044D01*
X126219115Y-89369092D01*
X126196060Y-89395304D01*
X126194547Y-89396835D01*
X126172100Y-89418209D01*
X126149160Y-89437257D01*
X126123887Y-89455199D01*
X126094442Y-89473256D01*
X126058986Y-89492647D01*
X126020940Y-89511988D01*
X125970340Y-89535571D01*
X125924337Y-89553299D01*
X125879868Y-89565921D01*
X125833873Y-89574186D01*
X125783288Y-89578846D01*
X125741540Y-89580405D01*
X125710454Y-89580724D01*
X125680632Y-89580478D01*
X125654533Y-89579728D01*
X125634620Y-89578532D01*
X125626541Y-89577606D01*
X125546252Y-89560304D01*
X125471810Y-89534729D01*
X125403047Y-89500796D01*
X125339792Y-89458420D01*
X125281877Y-89407514D01*
X125273641Y-89399138D01*
X125250714Y-89374208D01*
X125230438Y-89349270D01*
X125212616Y-89323524D01*
X125197051Y-89296168D01*
X125183547Y-89266401D01*
X125171906Y-89233423D01*
X125161934Y-89196431D01*
X125153431Y-89154625D01*
X125146203Y-89107204D01*
X125140051Y-89053366D01*
X125134781Y-88992311D01*
X125130193Y-88923238D01*
X125126093Y-88845344D01*
X125123516Y-88787700D01*
X125122533Y-88758665D01*
X125121629Y-88720414D01*
X125120803Y-88673728D01*
X125120055Y-88619387D01*
X125119386Y-88558174D01*
X125118795Y-88490869D01*
X125118283Y-88418255D01*
X125117849Y-88341112D01*
X125117494Y-88260222D01*
X125117218Y-88176366D01*
X125117020Y-88090326D01*
X125116902Y-88002883D01*
X125116862Y-87914818D01*
X125116902Y-87826913D01*
X125117020Y-87739949D01*
X125117218Y-87654708D01*
X125117495Y-87571971D01*
X125117852Y-87492519D01*
X125118288Y-87417134D01*
X125118803Y-87346596D01*
X125119398Y-87281689D01*
X125120072Y-87223192D01*
X125120826Y-87171887D01*
X125121660Y-87128556D01*
X125122574Y-87093980D01*
X125123360Y-87073200D01*
X125127226Y-86996443D01*
X125131440Y-86928903D01*
X125136213Y-86869639D01*
X125141758Y-86817706D01*
X125148287Y-86772165D01*
X125156012Y-86732072D01*
X125165145Y-86696485D01*
X125175898Y-86664462D01*
X125188484Y-86635061D01*
X125203115Y-86607341D01*
X125220003Y-86580357D01*
X125239360Y-86553170D01*
X125240952Y-86551050D01*
X125279251Y-86505813D01*
X125321986Y-86466300D01*
X125369940Y-86432129D01*
X125423894Y-86402914D01*
X125484629Y-86378272D01*
X125552928Y-86357817D01*
X125629571Y-86341166D01*
X125686712Y-86331840D01*
X125714780Y-86328037D01*
X125743778Y-86324670D01*
X125774544Y-86321702D01*
X125807916Y-86319098D01*
X125844732Y-86316823D01*
X125885830Y-86314841D01*
X125932047Y-86313117D01*
X125984221Y-86311615D01*
X126043190Y-86310300D01*
X126109792Y-86309136D01*
X126184864Y-86308088D01*
X126269244Y-86307121D01*
X126270734Y-86307105D01*
X126606889Y-86303580D01*
X126299017Y-86003860D01*
X126193704Y-85901153D01*
X126092397Y-85801985D01*
X125995348Y-85706612D01*
X125902810Y-85615287D01*
X125815037Y-85528267D01*
X125732283Y-85445805D01*
X125654799Y-85368157D01*
X125582840Y-85295577D01*
X125516659Y-85228321D01*
X125456509Y-85166644D01*
X125402644Y-85110800D01*
X125355316Y-85061045D01*
X125314779Y-85017633D01*
X125281286Y-84980820D01*
X125269514Y-84967540D01*
X125219656Y-84905130D01*
X125179591Y-84842337D01*
X125148963Y-84778332D01*
X125127413Y-84712287D01*
X125114585Y-84643371D01*
X125110874Y-84599240D01*
X125112242Y-84524391D01*
X125123191Y-84450669D01*
X125143146Y-84378883D01*
X125171534Y-84309843D01*
X125207780Y-84244358D01*
X125251309Y-84183239D01*
X125301548Y-84127296D01*
X125357922Y-84077338D01*
X125419857Y-84034175D01*
X125486778Y-83998617D01*
X125555430Y-83972309D01*
X125602338Y-83959168D01*
X125646568Y-83950510D01*
X125691704Y-83945880D01*
X125741328Y-83944823D01*
X125766940Y-83945421D01*
G37*
D11*
X125766940Y-83945421D02*
X125802995Y-83947257D01*
X125834912Y-83950028D01*
X125860474Y-83953510D01*
X125873620Y-83956308D01*
X125893816Y-83962399D01*
X125914606Y-83970009D01*
X125936269Y-83979383D01*
X125959084Y-83990766D01*
X125983329Y-84004405D01*
X126009284Y-84020543D01*
X126037229Y-84039426D01*
X126067441Y-84061299D01*
X126100200Y-84086408D01*
X126135785Y-84114998D01*
X126174476Y-84147314D01*
X126216550Y-84183601D01*
X126262288Y-84224104D01*
X126311968Y-84269069D01*
X126365870Y-84318741D01*
X126424272Y-84373365D01*
X126487454Y-84433186D01*
X126555694Y-84498450D01*
X126629272Y-84569401D01*
X126708467Y-84646286D01*
X126793557Y-84729348D01*
X126884822Y-84818834D01*
X126982542Y-84914989D01*
X127086994Y-85018057D01*
X127127973Y-85058557D01*
X127311413Y-85240622D01*
X127487853Y-85417163D01*
X127657179Y-85588065D01*
X127819279Y-85753213D01*
X127974042Y-85912492D01*
X128121354Y-86065785D01*
X128261104Y-86212978D01*
X128393179Y-86353954D01*
X128490058Y-86458722D01*
X128528566Y-86500659D01*
X128560825Y-86535972D01*
X128587474Y-86565504D01*
X128609151Y-86590102D01*
X128626494Y-86610609D01*
X128640142Y-86627870D01*
X128650735Y-86642730D01*
X128658909Y-86656033D01*
X128665305Y-86668623D01*
X128670560Y-86681347D01*
X128675313Y-86695047D01*
X128680020Y-86709980D01*
X128691456Y-86755569D01*
X128700198Y-86808266D01*
X128706173Y-86865658D01*
X128709311Y-86925330D01*
X128709540Y-86984870D01*
X128706788Y-87041865D01*
X128700983Y-87093900D01*
X128692661Y-87136210D01*
X128680329Y-87173244D01*
X128662394Y-87211949D01*
X128640890Y-87248477D01*
X128617851Y-87278980D01*
X128616247Y-87280775D01*
X128595694Y-87301429D01*
X128571869Y-87321240D01*
X128543843Y-87340724D01*
X128510686Y-87360394D01*
X128471469Y-87380764D01*
X128425263Y-87402347D01*
X128371140Y-87425659D01*
X128308169Y-87451212D01*
X128307974Y-87451289D01*
X128210009Y-87487248D01*
X128115206Y-87515860D01*
X128020676Y-87537771D01*
X127923530Y-87553627D01*
X127820880Y-87564076D01*
X127796400Y-87565769D01*
X127774600Y-87566806D01*
X127744005Y-87567752D01*
X127705979Y-87568587D01*
X127661884Y-87569293D01*
X127613087Y-87569853D01*
X127560950Y-87570249D01*
X127506838Y-87570461D01*
X127452115Y-87570473D01*
X127443340Y-87570455D01*
X127375126Y-87570457D01*
X127298374Y-87570752D01*
X127214697Y-87571319D01*
X127125713Y-87572135D01*
X127033036Y-87573177D01*
X126938282Y-87574424D01*
X126843068Y-87575854D01*
X126749007Y-87577443D01*
X126657718Y-87579170D01*
X126570814Y-87581012D01*
X126489912Y-87582948D01*
X126441757Y-87584234D01*
X126329175Y-87587381D01*
X126326815Y-88248500D01*
X126326394Y-88353741D01*
X126325911Y-88452021D01*
X126325369Y-88543036D01*
X126324770Y-88626482D01*
X126324118Y-88702055D01*
X126323417Y-88769453D01*
X126322670Y-88828370D01*
X126321880Y-88878503D01*
X126321050Y-88919548D01*
X126320184Y-88951201D01*
X126319286Y-88973158D01*
X126318799Y-88980740D01*
X126312039Y-89055160D01*
X126304194Y-89120364D01*
X126294993Y-89177263D01*
X126284163Y-89226769D01*
X126271433Y-89269794D01*
X126256530Y-89307248D01*
X126239181Y-89340044D01*
X126219115Y-89369092D01*
X126196060Y-89395304D01*
X126194547Y-89396835D01*
X126172100Y-89418209D01*
X126149160Y-89437257D01*
X126123887Y-89455199D01*
X126094442Y-89473256D01*
X126058986Y-89492647D01*
X126020940Y-89511988D01*
X125970340Y-89535571D01*
X125924337Y-89553299D01*
X125879868Y-89565921D01*
X125833873Y-89574186D01*
X125783288Y-89578846D01*
X125741540Y-89580405D01*
X125710454Y-89580724D01*
X125680632Y-89580478D01*
X125654533Y-89579728D01*
X125634620Y-89578532D01*
X125626541Y-89577606D01*
X125546252Y-89560304D01*
X125471810Y-89534729D01*
X125403047Y-89500796D01*
X125339792Y-89458420D01*
X125281877Y-89407514D01*
X125273641Y-89399138D01*
X125250714Y-89374208D01*
X125230438Y-89349270D01*
X125212616Y-89323524D01*
X125197051Y-89296168D01*
X125183547Y-89266401D01*
X125171906Y-89233423D01*
X125161934Y-89196431D01*
X125153431Y-89154625D01*
X125146203Y-89107204D01*
X125140051Y-89053366D01*
X125134781Y-88992311D01*
X125130193Y-88923238D01*
X125126093Y-88845344D01*
X125123516Y-88787700D01*
X125122533Y-88758665D01*
X125121629Y-88720414D01*
X125120803Y-88673728D01*
X125120055Y-88619387D01*
X125119386Y-88558174D01*
X125118795Y-88490869D01*
X125118283Y-88418255D01*
X125117849Y-88341112D01*
X125117494Y-88260222D01*
X125117218Y-88176366D01*
X125117020Y-88090326D01*
X125116902Y-88002883D01*
X125116862Y-87914818D01*
X125116902Y-87826913D01*
X125117020Y-87739949D01*
X125117218Y-87654708D01*
X125117495Y-87571971D01*
X125117852Y-87492519D01*
X125118288Y-87417134D01*
X125118803Y-87346596D01*
X125119398Y-87281689D01*
X125120072Y-87223192D01*
X125120826Y-87171887D01*
X125121660Y-87128556D01*
X125122574Y-87093980D01*
X125123360Y-87073200D01*
X125127226Y-86996443D01*
X125131440Y-86928903D01*
X125136213Y-86869639D01*
X125141758Y-86817706D01*
X125148287Y-86772165D01*
X125156012Y-86732072D01*
X125165145Y-86696485D01*
X125175898Y-86664462D01*
X125188484Y-86635061D01*
X125203115Y-86607341D01*
X125220003Y-86580357D01*
X125239360Y-86553170D01*
X125240952Y-86551050D01*
X125279251Y-86505813D01*
X125321986Y-86466300D01*
X125369940Y-86432129D01*
X125423894Y-86402914D01*
X125484629Y-86378272D01*
X125552928Y-86357817D01*
X125629571Y-86341166D01*
X125686712Y-86331840D01*
X125714780Y-86328037D01*
X125743778Y-86324670D01*
X125774544Y-86321702D01*
X125807916Y-86319098D01*
X125844732Y-86316823D01*
X125885830Y-86314841D01*
X125932047Y-86313117D01*
X125984221Y-86311615D01*
X126043190Y-86310300D01*
X126109792Y-86309136D01*
X126184864Y-86308088D01*
X126269244Y-86307121D01*
X126270734Y-86307105D01*
X126606889Y-86303580D01*
X126299017Y-86003860D01*
X126193704Y-85901153D01*
X126092397Y-85801985D01*
X125995348Y-85706612D01*
X125902810Y-85615287D01*
X125815037Y-85528267D01*
X125732283Y-85445805D01*
X125654799Y-85368157D01*
X125582840Y-85295577D01*
X125516659Y-85228321D01*
X125456509Y-85166644D01*
X125402644Y-85110800D01*
X125355316Y-85061045D01*
X125314779Y-85017633D01*
X125281286Y-84980820D01*
X125269514Y-84967540D01*
X125219656Y-84905130D01*
X125179591Y-84842337D01*
X125148963Y-84778332D01*
X125127413Y-84712287D01*
X125114585Y-84643371D01*
X125110874Y-84599240D01*
X125112242Y-84524391D01*
X125123191Y-84450669D01*
X125143146Y-84378883D01*
X125171534Y-84309843D01*
X125207780Y-84244358D01*
X125251309Y-84183239D01*
X125301548Y-84127296D01*
X125357922Y-84077338D01*
X125419857Y-84034175D01*
X125486778Y-83998617D01*
X125555430Y-83972309D01*
X125602338Y-83959168D01*
X125646568Y-83950510D01*
X125691704Y-83945880D01*
X125741328Y-83944823D01*
X125766940Y-83945421D01*
G36*
X131168650Y-81614769D02*
G01*
X131220323Y-81636332D01*
X131268788Y-81667028D01*
X131313538Y-81706194D01*
X131354065Y-81753168D01*
X131389863Y-81807288D01*
X131420426Y-81867891D01*
X131445246Y-81934316D01*
X131462202Y-81998280D01*
X131466879Y-82027692D01*
X131470107Y-82064435D01*
X131471883Y-82105784D01*
X131472205Y-82149013D01*
X131471068Y-82191395D01*
X131468469Y-82230205D01*
X131464405Y-82262718D01*
X131462531Y-82272600D01*
X131441362Y-82351604D01*
X131412919Y-82423965D01*
X131376706Y-82490608D01*
X131332227Y-82552460D01*
X131284143Y-82605368D01*
X131234137Y-82650504D01*
X131179906Y-82691226D01*
X131124442Y-82725377D01*
X131100321Y-82737813D01*
X131076164Y-82748436D01*
X131049769Y-82757878D01*
X131020383Y-82766231D01*
X130987256Y-82773586D01*
X130949638Y-82780035D01*
X130906776Y-82785670D01*
X130857922Y-82790583D01*
X130802323Y-82794865D01*
X130739229Y-82798608D01*
X130667889Y-82801905D01*
X130587552Y-82804846D01*
X130539600Y-82806335D01*
X130520142Y-82806766D01*
X130490976Y-82807208D01*
X130452552Y-82807659D01*
X130405321Y-82808115D01*
X130349735Y-82808576D01*
X130286244Y-82809039D01*
X130215300Y-82809502D01*
X130137353Y-82809962D01*
X130052855Y-82810418D01*
X129962256Y-82810868D01*
X129866009Y-82811308D01*
X129764564Y-82811738D01*
X129658371Y-82812155D01*
X129547883Y-82812557D01*
X129433550Y-82812941D01*
X129315823Y-82813306D01*
X129195154Y-82813649D01*
X129071993Y-82813969D01*
X128946792Y-82814262D01*
X128820002Y-82814528D01*
X128818858Y-82814530D01*
X127273377Y-82817568D01*
X127676026Y-83224534D01*
X127748908Y-83298210D01*
X127815113Y-83365169D01*
X127875121Y-83425902D01*
X127929412Y-83480902D01*
X127978466Y-83530663D01*
X128022764Y-83575677D01*
X128062785Y-83616436D01*
X128099011Y-83653434D01*
X128131920Y-83687164D01*
X128161994Y-83718117D01*
X128189711Y-83746787D01*
X128215554Y-83773667D01*
X128240001Y-83799250D01*
X128263533Y-83824028D01*
X128286630Y-83848493D01*
X128309773Y-83873140D01*
X128333441Y-83898460D01*
X128349312Y-83915488D01*
X128407703Y-83978476D01*
X128459220Y-84034657D01*
X128504181Y-84084405D01*
X128542902Y-84128089D01*
X128575701Y-84166082D01*
X128602895Y-84198755D01*
X128624801Y-84226479D01*
X128641736Y-84249626D01*
X128654018Y-84268567D01*
X128659778Y-84279043D01*
X128685520Y-84341584D01*
X128702964Y-84408556D01*
X128712290Y-84478794D01*
X128713680Y-84551130D01*
X128707313Y-84624400D01*
X128693372Y-84697436D01*
X128672035Y-84769074D01*
X128643485Y-84838146D01*
X128607902Y-84903486D01*
X128565466Y-84963930D01*
X128550875Y-84981575D01*
X128499219Y-85034182D01*
X128440927Y-85079497D01*
X128375756Y-85117664D01*
X128303459Y-85148825D01*
X128223791Y-85173123D01*
X128220817Y-85173863D01*
X128188429Y-85179878D01*
X128149362Y-85184053D01*
X128106948Y-85186283D01*
X128064518Y-85186465D01*
X128025403Y-85184496D01*
X127996025Y-85180842D01*
X127972803Y-85175942D01*
X127944407Y-85168771D01*
X127915229Y-85160480D01*
X127899505Y-85155555D01*
X127881967Y-85149632D01*
X127866594Y-85143765D01*
X127852260Y-85137168D01*
X127837840Y-85129058D01*
X127822210Y-85118651D01*
X127804245Y-85105162D01*
X127782819Y-85087807D01*
X127756808Y-85065800D01*
X127725086Y-85038359D01*
X127699880Y-85016369D01*
X127650634Y-84972807D01*
X127595350Y-84922942D01*
X127534466Y-84867207D01*
X127468421Y-84806036D01*
X127397655Y-84739864D01*
X127322607Y-84669125D01*
X127243715Y-84594253D01*
X127161420Y-84515682D01*
X127076160Y-84433845D01*
X126988375Y-84349178D01*
X126898503Y-84262115D01*
X126806984Y-84173088D01*
X126714258Y-84082534D01*
X126620762Y-83990885D01*
X126526938Y-83898576D01*
X126433222Y-83806040D01*
X126340056Y-83713713D01*
X126247878Y-83622028D01*
X126157127Y-83531420D01*
X126068243Y-83442321D01*
X125981665Y-83355168D01*
X125897831Y-83270393D01*
X125817182Y-83188430D01*
X125740155Y-83109715D01*
X125667192Y-83034681D01*
X125598729Y-82963762D01*
X125535208Y-82897392D01*
X125477067Y-82836006D01*
X125424745Y-82780037D01*
X125378682Y-82729919D01*
X125339317Y-82686088D01*
X125319763Y-82663760D01*
X125263919Y-82594054D01*
X125217197Y-82524153D01*
X125178655Y-82452445D01*
X125147355Y-82377321D01*
X125139700Y-82355272D01*
X125124846Y-82308585D01*
X125113740Y-82267969D01*
X125105889Y-82230372D01*
X125100802Y-82192739D01*
X125097986Y-82152017D01*
X125096950Y-82105154D01*
X125096912Y-82089720D01*
X125097044Y-82054500D01*
X125097496Y-82027309D01*
X125098464Y-82006018D01*
X125100144Y-81988495D01*
X125102730Y-81972610D01*
X125106419Y-81956233D01*
X125110622Y-81940126D01*
X125131653Y-81878510D01*
X125159617Y-81823265D01*
X125194082Y-81774920D01*
X125234612Y-81734006D01*
X125280775Y-81701054D01*
X125323185Y-81680080D01*
X125340836Y-81673392D01*
X125358402Y-81667986D01*
X125377705Y-81663537D01*
X125400572Y-81659723D01*
X125428829Y-81656217D01*
X125464300Y-81652695D01*
X125490080Y-81650417D01*
X125533468Y-81646923D01*
X125580483Y-81643584D01*
X125631345Y-81640398D01*
X125686274Y-81637362D01*
X125745493Y-81634473D01*
X125809221Y-81631729D01*
X125877679Y-81629126D01*
X125951089Y-81626663D01*
X126029670Y-81624335D01*
X126113645Y-81622142D01*
X126203232Y-81620079D01*
X126298655Y-81618144D01*
X126400132Y-81616335D01*
X126507886Y-81614648D01*
X126622137Y-81613082D01*
X126743105Y-81611632D01*
X126871012Y-81610298D01*
X127006078Y-81609075D01*
X127148524Y-81607961D01*
X127298571Y-81606953D01*
X127456440Y-81606049D01*
X127622352Y-81605246D01*
X127796527Y-81604542D01*
X127979186Y-81603932D01*
X128170551Y-81603416D01*
X128370841Y-81602990D01*
X128580278Y-81602650D01*
X128799083Y-81602396D01*
X129027476Y-81602223D01*
X129265678Y-81602130D01*
X129410307Y-81602111D01*
X131128355Y-81602039D01*
X131168650Y-81614769D01*
G37*
X131168650Y-81614769D02*
X131220323Y-81636332D01*
X131268788Y-81667028D01*
X131313538Y-81706194D01*
X131354065Y-81753168D01*
X131389863Y-81807288D01*
X131420426Y-81867891D01*
X131445246Y-81934316D01*
X131462202Y-81998280D01*
X131466879Y-82027692D01*
X131470107Y-82064435D01*
X131471883Y-82105784D01*
X131472205Y-82149013D01*
X131471068Y-82191395D01*
X131468469Y-82230205D01*
X131464405Y-82262718D01*
X131462531Y-82272600D01*
X131441362Y-82351604D01*
X131412919Y-82423965D01*
X131376706Y-82490608D01*
X131332227Y-82552460D01*
X131284143Y-82605368D01*
X131234137Y-82650504D01*
X131179906Y-82691226D01*
X131124442Y-82725377D01*
X131100321Y-82737813D01*
X131076164Y-82748436D01*
X131049769Y-82757878D01*
X131020383Y-82766231D01*
X130987256Y-82773586D01*
X130949638Y-82780035D01*
X130906776Y-82785670D01*
X130857922Y-82790583D01*
X130802323Y-82794865D01*
X130739229Y-82798608D01*
X130667889Y-82801905D01*
X130587552Y-82804846D01*
X130539600Y-82806335D01*
X130520142Y-82806766D01*
X130490976Y-82807208D01*
X130452552Y-82807659D01*
X130405321Y-82808115D01*
X130349735Y-82808576D01*
X130286244Y-82809039D01*
X130215300Y-82809502D01*
X130137353Y-82809962D01*
X130052855Y-82810418D01*
X129962256Y-82810868D01*
X129866009Y-82811308D01*
X129764564Y-82811738D01*
X129658371Y-82812155D01*
X129547883Y-82812557D01*
X129433550Y-82812941D01*
X129315823Y-82813306D01*
X129195154Y-82813649D01*
X129071993Y-82813969D01*
X128946792Y-82814262D01*
X128820002Y-82814528D01*
X128818858Y-82814530D01*
X127273377Y-82817568D01*
X127676026Y-83224534D01*
X127748908Y-83298210D01*
X127815113Y-83365169D01*
X127875121Y-83425902D01*
X127929412Y-83480902D01*
X127978466Y-83530663D01*
X128022764Y-83575677D01*
X128062785Y-83616436D01*
X128099011Y-83653434D01*
X128131920Y-83687164D01*
X128161994Y-83718117D01*
X128189711Y-83746787D01*
X128215554Y-83773667D01*
X128240001Y-83799250D01*
X128263533Y-83824028D01*
X128286630Y-83848493D01*
X128309773Y-83873140D01*
X128333441Y-83898460D01*
X128349312Y-83915488D01*
X128407703Y-83978476D01*
X128459220Y-84034657D01*
X128504181Y-84084405D01*
X128542902Y-84128089D01*
X128575701Y-84166082D01*
X128602895Y-84198755D01*
X128624801Y-84226479D01*
X128641736Y-84249626D01*
X128654018Y-84268567D01*
X128659778Y-84279043D01*
X128685520Y-84341584D01*
X128702964Y-84408556D01*
X128712290Y-84478794D01*
X128713680Y-84551130D01*
X128707313Y-84624400D01*
X128693372Y-84697436D01*
X128672035Y-84769074D01*
X128643485Y-84838146D01*
X128607902Y-84903486D01*
X128565466Y-84963930D01*
X128550875Y-84981575D01*
X128499219Y-85034182D01*
X128440927Y-85079497D01*
X128375756Y-85117664D01*
X128303459Y-85148825D01*
X128223791Y-85173123D01*
X128220817Y-85173863D01*
X128188429Y-85179878D01*
X128149362Y-85184053D01*
X128106948Y-85186283D01*
X128064518Y-85186465D01*
X128025403Y-85184496D01*
X127996025Y-85180842D01*
X127972803Y-85175942D01*
X127944407Y-85168771D01*
X127915229Y-85160480D01*
X127899505Y-85155555D01*
X127881967Y-85149632D01*
X127866594Y-85143765D01*
X127852260Y-85137168D01*
X127837840Y-85129058D01*
X127822210Y-85118651D01*
X127804245Y-85105162D01*
X127782819Y-85087807D01*
X127756808Y-85065800D01*
X127725086Y-85038359D01*
X127699880Y-85016369D01*
X127650634Y-84972807D01*
X127595350Y-84922942D01*
X127534466Y-84867207D01*
X127468421Y-84806036D01*
X127397655Y-84739864D01*
X127322607Y-84669125D01*
X127243715Y-84594253D01*
X127161420Y-84515682D01*
X127076160Y-84433845D01*
X126988375Y-84349178D01*
X126898503Y-84262115D01*
X126806984Y-84173088D01*
X126714258Y-84082534D01*
X126620762Y-83990885D01*
X126526938Y-83898576D01*
X126433222Y-83806040D01*
X126340056Y-83713713D01*
X126247878Y-83622028D01*
X126157127Y-83531420D01*
X126068243Y-83442321D01*
X125981665Y-83355168D01*
X125897831Y-83270393D01*
X125817182Y-83188430D01*
X125740155Y-83109715D01*
X125667192Y-83034681D01*
X125598729Y-82963762D01*
X125535208Y-82897392D01*
X125477067Y-82836006D01*
X125424745Y-82780037D01*
X125378682Y-82729919D01*
X125339317Y-82686088D01*
X125319763Y-82663760D01*
X125263919Y-82594054D01*
X125217197Y-82524153D01*
X125178655Y-82452445D01*
X125147355Y-82377321D01*
X125139700Y-82355272D01*
X125124846Y-82308585D01*
X125113740Y-82267969D01*
X125105889Y-82230372D01*
X125100802Y-82192739D01*
X125097986Y-82152017D01*
X125096950Y-82105154D01*
X125096912Y-82089720D01*
X125097044Y-82054500D01*
X125097496Y-82027309D01*
X125098464Y-82006018D01*
X125100144Y-81988495D01*
X125102730Y-81972610D01*
X125106419Y-81956233D01*
X125110622Y-81940126D01*
X125131653Y-81878510D01*
X125159617Y-81823265D01*
X125194082Y-81774920D01*
X125234612Y-81734006D01*
X125280775Y-81701054D01*
X125323185Y-81680080D01*
X125340836Y-81673392D01*
X125358402Y-81667986D01*
X125377705Y-81663537D01*
X125400572Y-81659723D01*
X125428829Y-81656217D01*
X125464300Y-81652695D01*
X125490080Y-81650417D01*
X125533468Y-81646923D01*
X125580483Y-81643584D01*
X125631345Y-81640398D01*
X125686274Y-81637362D01*
X125745493Y-81634473D01*
X125809221Y-81631729D01*
X125877679Y-81629126D01*
X125951089Y-81626663D01*
X126029670Y-81624335D01*
X126113645Y-81622142D01*
X126203232Y-81620079D01*
X126298655Y-81618144D01*
X126400132Y-81616335D01*
X126507886Y-81614648D01*
X126622137Y-81613082D01*
X126743105Y-81611632D01*
X126871012Y-81610298D01*
X127006078Y-81609075D01*
X127148524Y-81607961D01*
X127298571Y-81606953D01*
X127456440Y-81606049D01*
X127622352Y-81605246D01*
X127796527Y-81604542D01*
X127979186Y-81603932D01*
X128170551Y-81603416D01*
X128370841Y-81602990D01*
X128580278Y-81602650D01*
X128799083Y-81602396D01*
X129027476Y-81602223D01*
X129265678Y-81602130D01*
X129410307Y-81602111D01*
X131128355Y-81602039D01*
X131168650Y-81614769D01*
%TD*%
D12*
%TO.C,JP2*%
X192550000Y-85850000D03*
D13*
X193850000Y-85850000D03*
%TD*%
D14*
%TO.C,M7*%
X199871000Y2255000D03*
%TD*%
%TO.C,M8*%
X275871000Y2255000D03*
%TD*%
%TO.C,M6*%
X85871000Y2255000D03*
%TD*%
%TO.C,M5*%
X9871000Y2255000D03*
%TD*%
%TO.C,M1*%
X9871000Y-97495000D03*
%TD*%
%TO.C,M2*%
X85871000Y-97495000D03*
%TD*%
%TO.C,M3*%
X199871000Y-97495000D03*
%TD*%
%TO.C,M4*%
X275871000Y-97495000D03*
%TD*%
D15*
%TO.C,K10*%
X156420000Y-9525000D03*
D16*
X161500000Y-9525000D03*
D15*
X166580000Y-9525000D03*
%TD*%
%TO.C,K29*%
X265670000Y-28575000D03*
D16*
X270750000Y-28575000D03*
D15*
X275830000Y-28575000D03*
%TD*%
%TO.C,K9*%
X137420000Y-9525000D03*
D16*
X142500000Y-9525000D03*
D15*
X147580000Y-9525000D03*
%TD*%
%TO.C,K2*%
X4445000Y-9525000D03*
D16*
X9525000Y-9525000D03*
D15*
X14605000Y-9525000D03*
%TD*%
%TO.C,K5*%
X61420000Y-9525000D03*
D16*
X66500000Y-9525000D03*
D15*
X71580000Y-9525000D03*
%TD*%
%TO.C,K11*%
X175420000Y-9525000D03*
X185580000Y-9525000D03*
D16*
X180500000Y-9525000D03*
%TD*%
D15*
%TO.C,MX2*%
X11545000Y-47625000D03*
D16*
X16625000Y-47625000D03*
D15*
X21705000Y-47625000D03*
%TD*%
D16*
%TO.C,K54*%
X204250000Y-66675000D03*
D15*
X209330000Y-66675000D03*
X199170000Y-66675000D03*
%TD*%
D16*
%TO.C,K66*%
X223250000Y-85725000D03*
D15*
X228330000Y-85725000D03*
X218170000Y-85725000D03*
%TD*%
%TO.C,K35*%
X104830000Y-47625000D03*
X94670000Y-47625000D03*
D16*
X99750000Y-47625000D03*
%TD*%
%TO.C,K43*%
X275531250Y-39370000D03*
D17*
X251718750Y-54610000D03*
D16*
X251718750Y-39370000D03*
D17*
X275531250Y-54610000D03*
D16*
X263625000Y-47625000D03*
D15*
X258545000Y-47625000D03*
X268705000Y-47625000D03*
%TD*%
D16*
%TO.C,K16*%
X14250000Y-28575000D03*
D15*
X19330000Y-28575000D03*
X9170000Y-28575000D03*
%TD*%
%TO.C,K47*%
X76330000Y-66675000D03*
X66170000Y-66675000D03*
D16*
X71250000Y-66675000D03*
%TD*%
%TO.C,K63*%
X85450000Y-77470000D03*
D17*
X85450000Y-92710000D03*
D16*
X104500000Y-85725000D03*
D15*
X99420000Y-85725000D03*
D17*
X123550000Y-92710000D03*
D15*
X109580000Y-85725000D03*
D16*
X123550000Y-77470000D03*
%TD*%
%TO.C,K22*%
X133000000Y-28575000D03*
D15*
X127920000Y-28575000D03*
X138080000Y-28575000D03*
%TD*%
%TO.C,K26*%
X214080000Y-28575000D03*
X203920000Y-28575000D03*
D16*
X209000000Y-28575000D03*
%TD*%
D15*
%TO.C,K53*%
X190330000Y-66675000D03*
X180170000Y-66675000D03*
D16*
X185250000Y-66675000D03*
%TD*%
%TO.C,K15*%
X256500000Y-9525000D03*
D15*
X261580000Y-9525000D03*
X251420000Y-9525000D03*
%TD*%
%TO.C,K32*%
X37670000Y-47625000D03*
D16*
X42750000Y-47625000D03*
D15*
X47830000Y-47625000D03*
%TD*%
D16*
%TO.C,K65*%
X199550000Y-77470000D03*
D17*
X199550000Y-92710000D03*
D15*
X175420000Y-85725000D03*
D17*
X161450000Y-92710000D03*
D16*
X161450000Y-77470000D03*
D15*
X185580000Y-85725000D03*
D16*
X180500000Y-85725000D03*
%TD*%
D15*
%TO.C,K37*%
X142830000Y-47625000D03*
D16*
X137750000Y-47625000D03*
D15*
X132670000Y-47625000D03*
%TD*%
D16*
%TO.C,K24*%
X171000000Y-28575000D03*
D15*
X165920000Y-28575000D03*
X176080000Y-28575000D03*
%TD*%
%TO.C,K14*%
X242580000Y-9525000D03*
D16*
X237500000Y-9525000D03*
D15*
X232420000Y-9525000D03*
%TD*%
%TO.C,K52*%
X171330000Y-66675000D03*
D16*
X166250000Y-66675000D03*
D15*
X161170000Y-66675000D03*
%TD*%
D16*
%TO.C,K12*%
X199500000Y-9525000D03*
D15*
X204580000Y-9525000D03*
X194420000Y-9525000D03*
%TD*%
%TO.C,K39*%
X170670000Y-47625000D03*
D16*
X175750000Y-47625000D03*
D15*
X180830000Y-47625000D03*
%TD*%
%TO.C,K40*%
X199830000Y-47625000D03*
X189670000Y-47625000D03*
D16*
X194750000Y-47625000D03*
%TD*%
D15*
%TO.C,K61*%
X32920000Y-85725000D03*
D16*
X38000000Y-85725000D03*
D15*
X43080000Y-85725000D03*
%TD*%
%TO.C,K21*%
X108920000Y-28575000D03*
X119080000Y-28575000D03*
D16*
X114000000Y-28575000D03*
%TD*%
D15*
%TO.C,K46*%
X47170000Y-66675000D03*
D16*
X52250000Y-66675000D03*
D15*
X57330000Y-66675000D03*
%TD*%
D16*
%TO.C,K17*%
X38000000Y-28575000D03*
D15*
X43080000Y-28575000D03*
X32920000Y-28575000D03*
%TD*%
D16*
%TO.C,K28*%
X247000000Y-28575000D03*
D15*
X252080000Y-28575000D03*
X241920000Y-28575000D03*
%TD*%
D16*
%TO.C,K33*%
X61750000Y-47625000D03*
D15*
X56670000Y-47625000D03*
X66830000Y-47625000D03*
%TD*%
%TO.C,K57*%
X280580000Y-66675000D03*
D16*
X275500000Y-66675000D03*
D15*
X270420000Y-66675000D03*
%TD*%
%TO.C,K20*%
X100080000Y-28575000D03*
X89920000Y-28575000D03*
D16*
X95000000Y-28575000D03*
%TD*%
D15*
%TO.C,K48*%
X95330000Y-66675000D03*
D16*
X90250000Y-66675000D03*
D15*
X85170000Y-66675000D03*
%TD*%
D16*
%TO.C,K44*%
X249375000Y-66675000D03*
D15*
X254455000Y-66675000D03*
X244295000Y-66675000D03*
%TD*%
D16*
%TO.C,K42*%
X232750000Y-47625000D03*
D15*
X227670000Y-47625000D03*
X237830000Y-47625000D03*
%TD*%
%TO.C,K19*%
X81080000Y-28575000D03*
X70920000Y-28575000D03*
D16*
X76000000Y-28575000D03*
%TD*%
%TO.C,K3*%
X28500000Y-9525000D03*
D15*
X33580000Y-9525000D03*
X23420000Y-9525000D03*
%TD*%
D16*
%TO.C,K4*%
X47500000Y-9525000D03*
D15*
X42420000Y-9525000D03*
X52580000Y-9525000D03*
%TD*%
D16*
%TO.C,K56*%
X270781250Y-74930000D03*
D15*
X263955000Y-66675000D03*
X253795000Y-66675000D03*
D17*
X270781250Y-59690000D03*
D16*
X258875000Y-66675000D03*
X246968750Y-74930000D03*
D17*
X246968750Y-59690000D03*
%TD*%
D15*
%TO.C,K36*%
X113670000Y-47625000D03*
D16*
X118750000Y-47625000D03*
D15*
X123830000Y-47625000D03*
%TD*%
D16*
%TO.C,K18*%
X57000000Y-28575000D03*
D15*
X62080000Y-28575000D03*
X51920000Y-28575000D03*
%TD*%
%TO.C,K38*%
X151670000Y-47625000D03*
X161830000Y-47625000D03*
D16*
X156750000Y-47625000D03*
%TD*%
%TO.C,K51*%
X147250000Y-66675000D03*
D15*
X152330000Y-66675000D03*
X142170000Y-66675000D03*
%TD*%
D16*
%TO.C,K59*%
X142500000Y-85725000D03*
D15*
X137420000Y-85725000D03*
X147580000Y-85725000D03*
%TD*%
D16*
%TO.C,K68*%
X270750000Y-85725000D03*
D15*
X275830000Y-85725000D03*
X265670000Y-85725000D03*
%TD*%
D16*
%TO.C,MX1*%
X11875000Y-47625000D03*
D15*
X16955000Y-47625000D03*
X6795000Y-47625000D03*
%TD*%
%TO.C,K6*%
X90580000Y-9525000D03*
X80420000Y-9525000D03*
D16*
X85500000Y-9525000D03*
%TD*%
D15*
%TO.C,K13*%
X213420000Y-9525000D03*
D16*
X218500000Y-9525000D03*
D15*
X223580000Y-9525000D03*
%TD*%
%TO.C,K34*%
X75670000Y-47625000D03*
D16*
X80750000Y-47625000D03*
D15*
X85830000Y-47625000D03*
%TD*%
%TO.C,K8*%
X128580000Y-9525000D03*
X118420000Y-9525000D03*
D16*
X123500000Y-9525000D03*
%TD*%
D15*
%TO.C,K7*%
X99420000Y-9525000D03*
D16*
X104500000Y-9525000D03*
D15*
X109580000Y-9525000D03*
%TD*%
%TO.C,K27*%
X233080000Y-28575000D03*
X222920000Y-28575000D03*
D16*
X228000000Y-28575000D03*
%TD*%
D17*
%TO.C,K1*%
X254093750Y-2540000D03*
D15*
X271080000Y-9525000D03*
D16*
X254093750Y-17780000D03*
D17*
X277906250Y-2540000D03*
D16*
X277906250Y-17780000D03*
X266000000Y-9525000D03*
D15*
X260920000Y-9525000D03*
%TD*%
D16*
%TO.C,K58*%
X275500000Y-9525000D03*
D15*
X270420000Y-9525000D03*
X280580000Y-9525000D03*
%TD*%
%TO.C,K50*%
X133330000Y-66675000D03*
X123170000Y-66675000D03*
D16*
X128250000Y-66675000D03*
%TD*%
D15*
%TO.C,K62*%
X56670000Y-85725000D03*
D16*
X61750000Y-85725000D03*
D15*
X66830000Y-85725000D03*
%TD*%
%TO.C,K41*%
X218830000Y-47625000D03*
X208670000Y-47625000D03*
D16*
X213750000Y-47625000D03*
%TD*%
D15*
%TO.C,K60*%
X19330000Y-85725000D03*
D16*
X14250000Y-85725000D03*
D15*
X9170000Y-85725000D03*
%TD*%
D16*
%TO.C,K45*%
X21375000Y-66675000D03*
D15*
X26455000Y-66675000D03*
D16*
X33281250Y-74930000D03*
D17*
X9468750Y-59690000D03*
X33281250Y-59690000D03*
D15*
X16295000Y-66675000D03*
D16*
X9468750Y-74930000D03*
%TD*%
D15*
%TO.C,K25*%
X195080000Y-28575000D03*
X184920000Y-28575000D03*
D16*
X190000000Y-28575000D03*
%TD*%
%TO.C,K23*%
X152000000Y-28575000D03*
D15*
X146920000Y-28575000D03*
X157080000Y-28575000D03*
%TD*%
%TO.C,K67*%
X241920000Y-85725000D03*
D16*
X247000000Y-85725000D03*
D15*
X252080000Y-85725000D03*
%TD*%
D16*
%TO.C,K55*%
X223250000Y-66675000D03*
D15*
X218170000Y-66675000D03*
X228330000Y-66675000D03*
%TD*%
D16*
%TO.C,K49*%
X109250000Y-66675000D03*
D15*
X114330000Y-66675000D03*
X104170000Y-66675000D03*
%TD*%
D18*
%TO.C,J2*%
X204334200Y-85840000D03*
D19*
X206874200Y-85840000D03*
X204334200Y-83300000D03*
X206874200Y-83300000D03*
X204334200Y-80760000D03*
X206874200Y-80760000D03*
%TD*%
D20*
%TO.C,J1*%
X138550000Y-1340000D03*
D21*
X138550000Y2840000D03*
X147190000Y2840000D03*
D20*
X147190000Y-1340000D03*
D22*
X145760000Y-810000D03*
X139980000Y-810000D03*
%TD*%
M02*
