%TF.GenerationSoftware,KiCad,Pcbnew,(6.0.4)*%
%TF.CreationDate,2022-05-28T14:43:12-04:00*%
%TF.ProjectId,keyboard,6b657962-6f61-4726-942e-6b696361645f,rev?*%
%TF.SameCoordinates,Original*%
%TF.FileFunction,Paste,Bot*%
%TF.FilePolarity,Positive*%
%FSLAX46Y46*%
G04 Gerber Fmt 4.6, Leading zero omitted, Abs format (unit mm)*
G04 Created by KiCad (PCBNEW (6.0.4)) date 2022-05-28 14:43:12*
%MOMM*%
%LPD*%
G01*
G04 APERTURE LIST*
G04 Aperture macros list*
%AMRoundRect*
0 Rectangle with rounded corners*
0 $1 Rounding radius*
0 $2 $3 $4 $5 $6 $7 $8 $9 X,Y pos of 4 corners*
0 Add a 4 corners polygon primitive as box body*
4,1,4,$2,$3,$4,$5,$6,$7,$8,$9,$2,$3,0*
0 Add four circle primitives for the rounded corners*
1,1,$1+$1,$2,$3*
1,1,$1+$1,$4,$5*
1,1,$1+$1,$6,$7*
1,1,$1+$1,$8,$9*
0 Add four rect primitives between the rounded corners*
20,1,$1+$1,$2,$3,$4,$5,0*
20,1,$1+$1,$4,$5,$6,$7,0*
20,1,$1+$1,$6,$7,$8,$9,0*
20,1,$1+$1,$8,$9,$2,$3,0*%
G04 Aperture macros list end*
%ADD10RoundRect,0.225000X-0.225000X-0.250000X0.225000X-0.250000X0.225000X0.250000X-0.225000X0.250000X0*%
%ADD11RoundRect,0.225000X0.225000X0.250000X-0.225000X0.250000X-0.225000X-0.250000X0.225000X-0.250000X0*%
%ADD12RoundRect,0.225000X0.250000X-0.225000X0.250000X0.225000X-0.250000X0.225000X-0.250000X-0.225000X0*%
%ADD13RoundRect,0.225000X-0.250000X0.225000X-0.250000X-0.225000X0.250000X-0.225000X0.250000X0.225000X0*%
%ADD14RoundRect,0.250000X-0.450000X0.262500X-0.450000X-0.262500X0.450000X-0.262500X0.450000X0.262500X0*%
%ADD15RoundRect,0.250000X0.450000X-0.262500X0.450000X0.262500X-0.450000X0.262500X-0.450000X-0.262500X0*%
%ADD16RoundRect,0.200000X0.275000X-0.200000X0.275000X0.200000X-0.275000X0.200000X-0.275000X-0.200000X0*%
%ADD17RoundRect,0.200000X-0.200000X-0.275000X0.200000X-0.275000X0.200000X0.275000X-0.200000X0.275000X0*%
%ADD18RoundRect,0.250000X0.625000X-0.375000X0.625000X0.375000X-0.625000X0.375000X-0.625000X-0.375000X0*%
%ADD19R,0.600000X1.450000*%
%ADD20R,0.300000X1.450000*%
%ADD21RoundRect,0.250000X-0.250000X-0.475000X0.250000X-0.475000X0.250000X0.475000X-0.250000X0.475000X0*%
%ADD22RoundRect,0.250000X-0.262500X-0.450000X0.262500X-0.450000X0.262500X0.450000X-0.262500X0.450000X0*%
%ADD23RoundRect,0.062500X-0.475000X0.062500X-0.475000X-0.062500X0.475000X-0.062500X0.475000X0.062500X0*%
%ADD24RoundRect,0.062500X-0.062500X0.475000X-0.062500X-0.475000X0.062500X-0.475000X0.062500X0.475000X0*%
%ADD25RoundRect,0.250000X-0.275000X0.275000X-0.275000X-0.275000X0.275000X-0.275000X0.275000X0.275000X0*%
%ADD26R,1.200000X1.400000*%
%ADD27R,1.200000X0.900000*%
%ADD28R,1.700000X0.820000*%
%ADD29RoundRect,0.205000X0.645000X0.205000X-0.645000X0.205000X-0.645000X-0.205000X0.645000X-0.205000X0*%
%ADD30RoundRect,0.150000X0.512500X0.150000X-0.512500X0.150000X-0.512500X-0.150000X0.512500X-0.150000X0*%
G04 APERTURE END LIST*
D10*
%TO.C,C1*%
X171125000Y-84000000D03*
X172675000Y-84000000D03*
%TD*%
%TO.C,C2*%
X168075000Y-90550000D03*
X169625000Y-90550000D03*
%TD*%
D11*
%TO.C,C4*%
X159825000Y-82850000D03*
X158275000Y-82850000D03*
%TD*%
D12*
%TO.C,C5*%
X167400000Y-79175000D03*
X167400000Y-77625000D03*
%TD*%
D13*
%TO.C,C6*%
X177000000Y-89625000D03*
X177000000Y-91175000D03*
%TD*%
D10*
%TO.C,C7*%
X176975000Y-88150000D03*
X178525000Y-88150000D03*
%TD*%
D13*
%TO.C,C8*%
X132411600Y-17842400D03*
X132411600Y-19392400D03*
%TD*%
D14*
%TO.C,R1*%
X138100000Y-4587500D03*
X138100000Y-6412500D03*
%TD*%
D15*
%TO.C,R2*%
X147800000Y-6362500D03*
X147800000Y-4537500D03*
%TD*%
D16*
%TO.C,R3*%
X166550000Y-74925000D03*
X166550000Y-73275000D03*
%TD*%
D17*
%TO.C,R5*%
X157175000Y-90000000D03*
X158825000Y-90000000D03*
%TD*%
D15*
%TO.C,R6*%
X193345698Y-81812500D03*
X193345698Y-79987500D03*
%TD*%
D18*
%TO.C,F1*%
X134850000Y-20500000D03*
X134850000Y-17700000D03*
%TD*%
D16*
%TO.C,R4*%
X165000000Y-74925000D03*
X165000000Y-73275000D03*
%TD*%
D19*
%TO.C,J1*%
X139620000Y-2255000D03*
X140420000Y-2255000D03*
D20*
X141120000Y-2255000D03*
X142120000Y-2255000D03*
X143620000Y-2255000D03*
X144620000Y-2255000D03*
D19*
X145320000Y-2255000D03*
X146120000Y-2255000D03*
X146120000Y-2255000D03*
X145320000Y-2255000D03*
D20*
X144120000Y-2255000D03*
X143120000Y-2255000D03*
X142620000Y-2255000D03*
X141620000Y-2255000D03*
D19*
X140420000Y-2255000D03*
X139620000Y-2255000D03*
%TD*%
D21*
%TO.C,C9*%
X133750000Y-4800000D03*
X135650000Y-4800000D03*
%TD*%
D22*
%TO.C,R7*%
X133800000Y-2750000D03*
X135625000Y-2750000D03*
%TD*%
D23*
%TO.C,U3*%
X161812500Y-82950000D03*
X161812500Y-83450000D03*
X161812500Y-83950000D03*
X161812500Y-84450000D03*
X161812500Y-84950000D03*
X161812500Y-85450000D03*
X161812500Y-85950000D03*
X161812500Y-86450000D03*
X161812500Y-86950000D03*
X161812500Y-87450000D03*
X161812500Y-87950000D03*
D24*
X162650000Y-88787500D03*
X163150000Y-88787500D03*
X163650000Y-88787500D03*
X164150000Y-88787500D03*
X164650000Y-88787500D03*
X165150000Y-88787500D03*
X165650000Y-88787500D03*
X166150000Y-88787500D03*
X166650000Y-88787500D03*
X167150000Y-88787500D03*
X167650000Y-88787500D03*
D23*
X168487500Y-87950000D03*
X168487500Y-87450000D03*
X168487500Y-86950000D03*
X168487500Y-86450000D03*
X168487500Y-85950000D03*
X168487500Y-85450000D03*
X168487500Y-84950000D03*
X168487500Y-84450000D03*
X168487500Y-83950000D03*
X168487500Y-83450000D03*
X168487500Y-82950000D03*
D24*
X167650000Y-82112500D03*
X167150000Y-82112500D03*
X166650000Y-82112500D03*
X166150000Y-82112500D03*
X165650000Y-82112500D03*
X165150000Y-82112500D03*
X164650000Y-82112500D03*
X164150000Y-82112500D03*
X163650000Y-82112500D03*
X163150000Y-82112500D03*
X162650000Y-82112500D03*
D25*
X163200000Y-84800000D03*
X167100000Y-86100000D03*
X165800000Y-83500000D03*
X164500000Y-83500000D03*
X164500000Y-86100000D03*
X163200000Y-87400000D03*
X164500000Y-84800000D03*
X163200000Y-86100000D03*
X164500000Y-87400000D03*
X167100000Y-87400000D03*
X163200000Y-83500000D03*
X165800000Y-87400000D03*
X167100000Y-83500000D03*
X165800000Y-86100000D03*
X167100000Y-84800000D03*
X165800000Y-84800000D03*
%TD*%
D26*
%TO.C,Y1*%
X175350000Y-88150000D03*
X175350000Y-90350000D03*
X173650000Y-90350000D03*
X173650000Y-88150000D03*
%TD*%
D27*
%TO.C,D55*%
X281437500Y-15143750D03*
X281437500Y-11843750D03*
%TD*%
%TO.C,D30*%
X51062500Y-52450000D03*
X51062500Y-49150000D03*
%TD*%
%TO.C,D33*%
X108062500Y-52450000D03*
X108062500Y-49150000D03*
%TD*%
%TO.C,D25*%
X217312500Y-33400000D03*
X217312500Y-30100000D03*
%TD*%
%TO.C,D7*%
X131812500Y-14350000D03*
X131812500Y-11050000D03*
%TD*%
%TO.C,D15*%
X22562500Y-33400000D03*
X22562500Y-30100000D03*
%TD*%
%TO.C,D38*%
X203062500Y-52450000D03*
X203062500Y-49150000D03*
%TD*%
%TO.C,D48*%
X155562500Y-71500000D03*
X155562500Y-68200000D03*
%TD*%
%TO.C,D14*%
X269562500Y-14518750D03*
X269562500Y-11218750D03*
%TD*%
%TO.C,D45*%
X98562500Y-71500000D03*
X98562500Y-68200000D03*
%TD*%
%TO.C,D16*%
X46312500Y-33400000D03*
X46312500Y-30100000D03*
%TD*%
%TO.C,D51*%
X212562500Y-71500000D03*
X212562500Y-68200000D03*
%TD*%
%TO.C,D46*%
X117562500Y-71500000D03*
X117562500Y-68200000D03*
%TD*%
%TO.C,D22*%
X160312500Y-33400000D03*
X160312500Y-30100000D03*
%TD*%
%TO.C,D64*%
X279062500Y-90550000D03*
X279062500Y-87250000D03*
%TD*%
%TO.C,D21*%
X141312500Y-33400000D03*
X141312500Y-30100000D03*
%TD*%
%TO.C,D43*%
X60562500Y-71500000D03*
X60562500Y-68200000D03*
%TD*%
%TO.C,D56*%
X22562500Y-90550000D03*
X22562500Y-87250000D03*
%TD*%
%TO.C,D8*%
X134187500Y-14350000D03*
X134187500Y-11050000D03*
%TD*%
D10*
%TO.C,C3*%
X13350000Y-55850000D03*
X14900000Y-55850000D03*
%TD*%
D27*
%TO.C,D37*%
X184062500Y-52450000D03*
X184062500Y-49150000D03*
%TD*%
%TO.C,D18*%
X84312500Y-33400000D03*
X84312500Y-30100000D03*
%TD*%
%TO.C,D13*%
X245812500Y-14350000D03*
X245812500Y-11050000D03*
%TD*%
%TO.C,D35*%
X146062500Y-52450000D03*
X146062500Y-49150000D03*
%TD*%
D12*
%TO.C,C10*%
X168900000Y-79025000D03*
X168900000Y-77475000D03*
%TD*%
D27*
%TO.C,D19*%
X103312500Y-33400000D03*
X103312500Y-30100000D03*
%TD*%
%TO.C,D50*%
X193562500Y-71500000D03*
X193562500Y-68200000D03*
%TD*%
%TO.C,D4*%
X74812500Y-14350000D03*
X74812500Y-11050000D03*
%TD*%
D28*
%TO.C,D65*%
X16925000Y-53375000D03*
X16925000Y-51875000D03*
D29*
X11825000Y-51875000D03*
D28*
X11825000Y-53375000D03*
%TD*%
D27*
%TO.C,D11*%
X207812500Y-14350000D03*
X207812500Y-11050000D03*
%TD*%
%TO.C,D1*%
X17812500Y-14350000D03*
X17812500Y-11050000D03*
%TD*%
%TO.C,D10*%
X188812500Y-14350000D03*
X188812500Y-11050000D03*
%TD*%
%TO.C,D24*%
X198312500Y-33400000D03*
X198312500Y-30100000D03*
%TD*%
%TO.C,D62*%
X231562500Y-90550000D03*
X231562500Y-87250000D03*
%TD*%
%TO.C,D20*%
X122312500Y-33400000D03*
X122312500Y-30100000D03*
%TD*%
%TO.C,D32*%
X89062500Y-52450000D03*
X89062500Y-49150000D03*
%TD*%
%TO.C,D2*%
X36812500Y-14350000D03*
X36812500Y-11050000D03*
%TD*%
%TO.C,D36*%
X165062500Y-52450000D03*
X165062500Y-49150000D03*
%TD*%
%TO.C,D54*%
X278625000Y-71500000D03*
X278625000Y-68200000D03*
%TD*%
%TO.C,D40*%
X241062500Y-52450000D03*
X241062500Y-49150000D03*
%TD*%
%TO.C,D3*%
X55812500Y-14350000D03*
X55812500Y-11050000D03*
%TD*%
%TO.C,D52*%
X231562500Y-71500000D03*
X231562500Y-68200000D03*
%TD*%
%TO.C,D57*%
X46312500Y-90550000D03*
X46312500Y-87250000D03*
%TD*%
%TO.C,D6*%
X112812500Y-14350000D03*
X112812500Y-11050000D03*
%TD*%
%TO.C,D5*%
X93812500Y-14350000D03*
X93812500Y-11050000D03*
%TD*%
%TO.C,D9*%
X169812500Y-14350000D03*
X169812500Y-11050000D03*
%TD*%
%TO.C,D29*%
X24937500Y-52450000D03*
X24937500Y-49150000D03*
%TD*%
%TO.C,D60*%
X150812500Y-90550000D03*
X150812500Y-87250000D03*
%TD*%
%TO.C,D58*%
X70062500Y-90550000D03*
X70062500Y-87250000D03*
%TD*%
%TO.C,D44*%
X79562500Y-71500000D03*
X79562500Y-68200000D03*
%TD*%
%TO.C,D63*%
X255312500Y-90550000D03*
X255312500Y-87250000D03*
%TD*%
%TO.C,D41*%
X271937500Y-52450000D03*
X271937500Y-49150000D03*
%TD*%
%TO.C,D23*%
X179312500Y-33400000D03*
X179312500Y-30100000D03*
%TD*%
D30*
%TO.C,U1*%
X143987500Y-4250000D03*
X143987500Y-5200000D03*
X143987500Y-6150000D03*
X141712500Y-6150000D03*
X141712500Y-5200000D03*
X141712500Y-4250000D03*
%TD*%
D27*
%TO.C,D59*%
X112812500Y-90550000D03*
X112812500Y-87250000D03*
%TD*%
D11*
%TO.C,C11*%
X159125000Y-88500000D03*
X157575000Y-88500000D03*
%TD*%
D27*
%TO.C,D47*%
X136562500Y-71500000D03*
X136562500Y-68200000D03*
%TD*%
%TO.C,D39*%
X222062500Y-52450000D03*
X222062500Y-49150000D03*
%TD*%
%TO.C,D49*%
X174562500Y-71500000D03*
X174562500Y-68200000D03*
%TD*%
%TO.C,D27*%
X255312500Y-33400000D03*
X255312500Y-30100000D03*
%TD*%
%TO.C,D42*%
X29687500Y-71500000D03*
X29687500Y-68200000D03*
%TD*%
%TO.C,D26*%
X236312500Y-33400000D03*
X236312500Y-30100000D03*
%TD*%
%TO.C,D53*%
X262000000Y-71500000D03*
X262000000Y-68200000D03*
%TD*%
%TO.C,D31*%
X70062500Y-52450000D03*
X70062500Y-49150000D03*
%TD*%
%TO.C,D34*%
X127062500Y-52450000D03*
X127062500Y-49150000D03*
%TD*%
%TO.C,D12*%
X226812500Y-14350000D03*
X226812500Y-11050000D03*
%TD*%
%TO.C,D61*%
X188900000Y-87950000D03*
X188900000Y-84650000D03*
%TD*%
%TO.C,D28*%
X279062500Y-33400000D03*
X279062500Y-30100000D03*
%TD*%
%TO.C,D17*%
X65312500Y-33400000D03*
X65312500Y-30100000D03*
%TD*%
M02*
