M48
; DRILL file {KiCad (6.0.4)} date Sat May 28 14:43:12 2022
; FORMAT={-:-/ absolute / inch / decimal}
; #@! TF.CreationDate,2022-05-28T14:43:12-04:00
; #@! TF.GenerationSoftware,Kicad,Pcbnew,(6.0.4)
; #@! TF.FileFunction,NonPlated,1,2,NPTH
FMAT,2
INCH
; #@! TA.AperFunction,NonPlated,NPTH,ComponentDrill
T1C0.0256
; #@! TA.AperFunction,NonPlated,NPTH,ComponentDrill
T2C0.0689
; #@! TA.AperFunction,NonPlated,NPTH,ComponentDrill
T3C0.1200
; #@! TA.AperFunction,NonPlated,NPTH,ComponentDrill
T4C0.1260
; #@! TA.AperFunction,NonPlated,NPTH,ComponentDrill
T5C0.1570
%
G90
G05
T1
X5.511Y-0.0319
X5.7386Y-0.0319
T2
X0.175Y-0.375
X0.2675Y-1.875
X0.361Y-1.125
X0.361Y-3.375
X0.4545Y-1.875
X0.575Y-0.375
X0.6415Y-2.625
X0.6675Y-1.875
X0.761Y-1.125
X0.761Y-3.375
X0.8545Y-1.875
X0.922Y-0.375
X1.0415Y-2.625
X1.2961Y-1.125
X1.2961Y-3.375
X1.322Y-0.375
X1.4831Y-1.875
X1.6701Y-0.375
X1.6961Y-1.125
X1.6961Y-3.375
X1.8571Y-2.625
X1.8831Y-1.875
X2.0441Y-1.125
X2.0701Y-0.375
X2.2311Y-1.875
X2.2311Y-3.375
X2.2571Y-2.625
X2.4181Y-0.375
X2.4441Y-1.125
X2.6051Y-2.625
X2.6311Y-1.875
X2.6311Y-3.375
X2.7921Y-1.125
X2.8181Y-0.375
X2.9791Y-1.875
X3.0051Y-2.625
X3.1661Y-0.375
X3.1921Y-1.125
X3.3531Y-2.625
X3.3791Y-1.875
X3.5402Y-1.125
X3.5661Y-0.375
X3.7272Y-1.875
X3.7531Y-2.625
X3.9142Y-0.375
X3.9142Y-3.375
X3.9402Y-1.125
X4.1012Y-2.625
X4.1272Y-1.875
X4.2882Y-1.125
X4.3142Y-0.375
X4.3142Y-3.375
X4.4752Y-1.875
X4.5012Y-2.625
X4.6622Y-0.375
X4.6882Y-1.125
X4.8492Y-2.625
X4.8752Y-1.875
X5.0362Y-1.125
X5.0622Y-0.375
X5.2232Y-1.875
X5.2492Y-2.625
X5.4102Y-0.375
X5.4102Y-3.375
X5.4362Y-1.125
X5.5972Y-2.625
X5.6232Y-1.875
X5.7843Y-1.125
X5.8102Y-0.375
X5.8102Y-3.375
X5.9713Y-1.875
X5.9972Y-2.625
X6.1583Y-0.375
X6.1843Y-1.125
X6.3453Y-2.625
X6.3713Y-1.875
X6.5323Y-1.125
X6.5583Y-0.375
X6.7193Y-1.875
X6.7453Y-2.625
X6.9063Y-0.375
X6.9063Y-3.375
X6.9323Y-1.125
X7.0933Y-2.625
X7.1193Y-1.875
X7.2803Y-1.125
X7.3063Y-0.375
X7.3063Y-3.375
X7.4673Y-1.875
X7.4933Y-2.625
X7.6543Y-0.375
X7.6803Y-1.125
X7.8413Y-2.625
X7.8673Y-1.875
X8.0283Y-1.125
X8.0543Y-0.375
X8.2154Y-1.875
X8.2413Y-2.625
X8.4024Y-0.375
X8.4283Y-1.125
X8.5894Y-2.625
X8.5894Y-3.375
X8.6154Y-1.875
X8.7764Y-1.125
X8.8024Y-0.375
X8.9634Y-1.875
X8.9894Y-2.625
X8.9894Y-3.375
X9.1504Y-0.375
X9.1764Y-1.125
X9.3634Y-1.875
X9.5244Y-1.125
X9.5244Y-3.375
X9.5504Y-0.375
X9.6179Y-2.625
X9.8984Y-0.375
X9.9244Y-1.125
X9.9244Y-3.375
X9.9919Y-2.625
X10.0179Y-2.625
X10.1789Y-1.875
X10.2724Y-0.375
X10.2984Y-0.375
X10.3919Y-2.625
X10.4594Y-1.125
X10.4594Y-3.375
X10.5789Y-1.875
X10.6465Y-0.375
X10.6465Y-2.625
X10.6724Y-0.375
X10.8594Y-1.125
X10.8594Y-3.375
X11.0465Y-0.375
X11.0465Y-2.625
T3
X0.3728Y-2.35
X1.3103Y-2.35
X3.3642Y-3.65
X4.8642Y-3.65
X6.3563Y-3.65
X7.8563Y-3.65
X9.7232Y-2.35
X9.9102Y-2.15
X10.0037Y-0.1
X10.6607Y-2.35
X10.8477Y-2.15
X10.9412Y-0.1
T4
X0.3886Y0.0888
X0.3886Y-3.8384
X3.3807Y0.0888
X3.3807Y-3.8384
X7.8689Y0.0888
X7.8689Y-3.8384
X10.8611Y0.0888
X10.8611Y-3.8384
T5
X0.3728Y-2.95
X0.375Y-0.375
X0.4675Y-1.875
X0.561Y-1.125
X0.561Y-3.375
X0.6545Y-1.875
X0.8415Y-2.625
X1.122Y-0.375
X1.3103Y-2.95
X1.4961Y-1.125
X1.4961Y-3.375
X1.6831Y-1.875
X1.8701Y-0.375
X2.0571Y-2.625
X2.2441Y-1.125
X2.4311Y-1.875
X2.4311Y-3.375
X2.6181Y-0.375
X2.8051Y-2.625
X2.9921Y-1.125
X3.1791Y-1.875
X3.3642Y-3.05
X3.3661Y-0.375
X3.5531Y-2.625
X3.7402Y-1.125
X3.9272Y-1.875
X4.1142Y-0.375
X4.1142Y-3.375
X4.3012Y-2.625
X4.4882Y-1.125
X4.6752Y-1.875
X4.8622Y-0.375
X4.8642Y-3.05
X5.0492Y-2.625
X5.2362Y-1.125
X5.4232Y-1.875
X5.6102Y-0.375
X5.6102Y-3.375
X5.7972Y-2.625
X5.9843Y-1.125
X6.1713Y-1.875
X6.3563Y-3.05
X6.3583Y-0.375
X6.5453Y-2.625
X6.7323Y-1.125
X6.9193Y-1.875
X7.1063Y-0.375
X7.1063Y-3.375
X7.2933Y-2.625
X7.4803Y-1.125
X7.6673Y-1.875
X7.8543Y-0.375
X7.8563Y-3.05
X8.0413Y-2.625
X8.2283Y-1.125
X8.4154Y-1.875
X8.6024Y-0.375
X8.7894Y-2.625
X8.7894Y-3.375
X8.9764Y-1.125
X9.1634Y-1.875
X9.3504Y-0.375
X9.7232Y-2.95
X9.7244Y-1.125
X9.7244Y-3.375
X9.8179Y-2.625
X9.9102Y-1.55
X10.0037Y-0.7
X10.0984Y-0.375
X10.1919Y-2.625
X10.3789Y-1.875
X10.4724Y-0.375
X10.6594Y-1.125
X10.6594Y-3.375
X10.6607Y-2.95
X10.8465Y-0.375
X10.8465Y-2.625
X10.8477Y-1.55
X10.9412Y-0.7
T0
M30
